<?xml version="1.0" standalone="no"?>
<!DOCTYPE svg PUBLIC "-//W3C//DTD SVG 20010904//EN"
 "http://www.w3.org/TR/2001/REC-SVG-20010904/DTD/svg10.dtd">
<svg version="1.0" xmlns="http://www.w3.org/2000/svg"
 width="1069.000000pt" height="1069.000000pt" viewBox="0 0 1069.000000 1069.000000"
 preserveAspectRatio="xMidYMid meet">
<metadata>
Created by potrace 1.11, written by Peter Selinger 2001-2013
</metadata>
<g transform="translate(0.000000,1069.000000) scale(0.100000,-0.100000)"
fill="#000000" stroke="none">
<path d="M4019 9936 c-2 -2 -31 -6 -64 -10 -32 -3 -100 -13 -150 -21 -298 -49
-518 -105 -1063 -269 -438 -132 -720 -204 -942 -240 -19 -3 -44 -7 -55 -10
-142 -28 -528 -41 -685 -24 -252 28 -468 91 -700 206 -74 37 -137 66 -139 64
-9 -5 -4 -5923 5 -5932 5 -5 56 -33 114 -63 137 -71 356 -152 470 -173 14 -2
31 -7 38 -9 7 -2 34 -7 60 -11 26 -3 50 -8 53 -10 42 -25 604 -25 699 1 8 2
39 6 68 9 30 3 57 8 60 10 4 2 31 7 61 10 29 4 56 8 60 10 3 2 22 7 41 10 19
3 67 12 105 21 39 9 77 18 85 20 8 2 83 22 165 45 83 22 157 43 166 45 9 2 86
24 170 50 85 25 192 58 239 72 134 40 542 153 575 159 17 3 46 9 66 14 54 15
286 57 349 65 30 3 66 8 80 10 136 22 461 22 603 -1 20 -3 47 -7 60 -8 123
-15 362 -87 502 -151 43 -19 79 -34 81 -32 2 2 6 61 8 133 8 187 17 405 22
514 10 247 9 277 -17 315 -15 21 -40 41 -65 51 -43 16 -65 14 -379 -46 -60
-11 -126 -23 -145 -26 -19 -3 -102 -18 -185 -34 -82 -16 -177 -34 -210 -40
-62 -10 -73 -12 -140 -25 -22 -4 -51 -9 -65 -11 -14 -2 -47 -9 -73 -15 -26 -6
-51 -9 -54 -5 -3 3 31 117 75 254 45 136 82 259 82 272 0 14 -8 37 -18 53 -14
23 -146 136 -332 287 -24 19 -100 82 -169 139 -69 57 -146 120 -170 140 -25
20 -85 70 -135 112 -50 41 -180 148 -289 238 -109 90 -197 164 -195 166 2 2
53 29 113 60 129 66 142 76 155 123 8 30 -6 96 -101 475 -60 242 -108 441
-107 442 2 2 100 -21 218 -51 118 -29 226 -56 240 -59 14 -3 66 -16 117 -28
156 -40 185 -28 244 101 22 48 44 96 48 107 5 11 20 45 33 75 14 30 33 74 43
98 11 23 22 42 26 42 6 0 36 -33 205 -225 43 -49 81 -92 84 -95 3 -3 71 -79
150 -170 182 -207 171 -195 197 -209 51 -26 130 -2 152 46 16 35 14 66 -14
204 -14 68 -27 133 -29 144 -3 11 -14 64 -26 119 -12 54 -23 108 -26 120 -2
11 -6 32 -9 46 -8 37 -12 55 -34 165 -11 55 -36 176 -56 269 -19 93 -37 181
-40 195 -6 31 -8 40 -30 146 -9 44 -18 88 -20 98 -2 9 -2 17 1 17 4 0 176
-105 254 -155 85 -55 197 -122 214 -128 29 -11 84 3 107 27 20 21 45 66 235
436 198 383 251 482 259 483 8 2 19 -18 210 -388 301 -582 280 -548 339 -559
18 -4 42 -3 52 1 16 6 140 80 239 143 13 8 45 28 72 44 26 16 72 44 101 63 29
19 55 33 57 31 2 -1 -6 -46 -16 -98 -11 -52 -23 -106 -25 -120 -3 -13 -12 -56
-20 -95 -15 -67 -19 -87 -28 -137 -2 -13 -12 -57 -21 -98 -9 -41 -18 -86 -21
-100 -3 -14 -23 -110 -44 -215 -22 -104 -42 -199 -44 -210 -2 -11 -20 -98 -40
-193 -46 -222 -46 -235 0 -278 43 -41 92 -45 138 -12 17 11 70 67 119 122 48
56 100 115 115 132 32 36 131 148 187 213 22 25 78 87 124 138 l84 93 42 -97
c122 -283 140 -317 175 -341 44 -30 20 -34 448 73 163 40 298 72 300 71 2 -2
-9 -50 -23 -107 -15 -57 -29 -112 -31 -121 -2 -10 -6 -26 -8 -35 -2 -10 -16
-65 -31 -123 -15 -58 -28 -112 -30 -120 -2 -8 -17 -70 -35 -137 -17 -67 -33
-130 -35 -140 -2 -10 -8 -39 -14 -66 -9 -37 -8 -54 2 -80 18 -41 21 -44 155
-113 l114 -59 -29 -25 c-32 -27 -40 -34 -222 -183 -68 -56 -216 -179 -330
-272 -113 -94 -307 -253 -431 -355 -255 -208 -286 -237 -296 -275 -6 -24 18
-138 37 -175 10 -20 109 -328 115 -359 4 -20 2 -23 -18 -18 -13 3 -63 13 -113
22 -49 9 -110 20 -135 25 -25 5 -61 12 -80 15 -44 6 -78 12 -165 30 -38 8 -86
17 -105 20 -76 13 -321 58 -405 75 -161 32 -193 34 -233 16 -48 -22 -83 -73
-84 -123 -1 -41 11 -400 17 -498 2 -33 7 -134 10 -225 4 -91 8 -166 9 -168 2
-1 38 14 80 33 146 66 356 130 491 150 23 3 52 8 65 10 39 8 217 19 300 19 93
-1 303 -12 322 -18 7 -3 33 -7 58 -10 132 -14 329 -55 570 -117 158 -42 207
-56 455 -129 358 -107 580 -170 665 -190 19 -5 62 -15 95 -23 65 -17 233 -51
305 -63 25 -4 47 -8 50 -9 3 -1 37 -5 75 -9 39 -4 84 -10 100 -13 57 -9 420
-10 500 -2 191 21 411 77 585 151 87 37 235 112 253 128 6 5 13 5802 7 5932 0
4 -62 -24 -137 -62 -157 -78 -313 -136 -448 -166 -173 -38 -284 -49 -490 -49
-195 0 -384 15 -499 40 -12 2 -38 7 -58 10 -36 5 -264 55 -343 75 -22 6 -48
12 -57 15 -49 11 -207 57 -503 145 -279 83 -422 123 -675 190 -68 18 -169 40
-207 46 -21 3 -54 9 -73 14 -19 4 -73 13 -120 20 -47 6 -98 14 -115 17 -16 3
-140 7 -275 9 -275 4 -346 -3 -560 -54 -175 -42 -292 -89 -543 -219 -25 -13
-30 -13 -61 6 -159 99 -448 205 -651 240 -33 5 -76 13 -95 17 -38 7 -534 17
-541 10z"/>
<path d="M4059 3336 c-2 -2 -38 -6 -79 -10 -41 -3 -86 -8 -100 -11 -14 -2 -68
-11 -120 -20 -52 -8 -126 -22 -165 -31 -38 -8 -81 -17 -95 -20 -59 -12 -265
-66 -395 -104 -77 -23 -153 -45 -170 -50 -16 -4 -75 -21 -130 -38 -158 -47
-523 -153 -542 -157 -10 -2 -63 -15 -118 -29 -55 -14 -111 -27 -125 -30 -14
-2 -45 -9 -70 -15 -25 -5 -61 -13 -80 -16 -19 -3 -60 -10 -90 -15 -106 -18
-156 -24 -290 -36 -74 -6 -311 -6 -385 1 -256 22 -509 93 -741 210 l-144 72
-1 -26 c0 -14 -1 -161 -1 -325 -1 -338 -9 -303 87 -354 210 -110 444 -190 642
-217 21 -3 47 -7 58 -10 130 -27 458 -22 685 11 166 23 185 27 350 64 52 12
103 23 112 25 29 6 209 55 278 75 89 27 409 121 615 182 145 42 445 121 510
134 11 2 54 11 95 19 41 8 84 16 95 19 11 2 43 7 70 10 28 4 79 12 115 17 107
17 481 19 600 4 107 -14 152 -22 182 -31 10 -3 30 -7 45 -10 125 -21 399 -130
544 -215 40 -23 50 -25 65 -15 109 76 429 206 564 230 14 2 45 9 70 15 25 5
68 13 95 16 28 4 77 10 110 15 77 10 369 10 460 0 39 -5 95 -11 125 -14 30 -3
66 -8 80 -11 107 -19 203 -37 245 -46 28 -5 61 -13 75 -15 96 -20 356 -92 899
-253 151 -45 285 -83 299 -86 13 -2 38 -9 56 -15 18 -6 42 -12 52 -14 10 -2
60 -14 109 -26 50 -12 101 -23 115 -26 14 -2 36 -7 50 -10 14 -3 36 -8 50 -10
47 -8 85 -14 106 -18 12 -2 45 -7 75 -11 30 -4 65 -9 79 -10 54 -7 239 -18
305 -18 76 0 296 13 305 18 3 1 28 6 55 9 172 23 393 95 590 193 150 74 136
39 136 323 0 135 0 281 0 326 l-1 81 -135 -69 c-236 -119 -490 -191 -756 -213
-127 -11 -403 -5 -499 11 -14 2 -61 9 -105 15 -145 19 -303 52 -545 114 -79
20 -409 115 -555 160 -255 78 -570 165 -685 189 -14 3 -54 12 -90 20 -91 20
-306 55 -387 63 -92 10 -462 10 -544 1 -239 -27 -497 -108 -718 -225 l-104
-55 -136 67 c-75 37 -145 71 -156 75 -11 4 -36 14 -55 22 -34 15 -197 65 -236
72 -93 19 -186 36 -219 42 -42 6 -480 15 -486 10z"/>
<path d="M4058 2015 c-2 -2 -30 -5 -63 -9 -33 -3 -85 -9 -115 -12 -30 -3 -113
-17 -185 -31 -71 -14 -141 -27 -155 -29 -14 -3 -32 -7 -40 -10 -8 -3 -26 -8
-40 -10 -73 -14 -356 -93 -630 -176 -91 -27 -172 -51 -180 -53 -8 -2 -101 -29
-207 -59 -180 -52 -403 -109 -466 -120 -15 -3 -35 -7 -45 -10 -9 -3 -33 -7
-52 -10 -19 -3 -75 -12 -125 -20 -280 -46 -586 -50 -808 -11 -127 23 -137 25
-216 46 -122 33 -258 87 -388 154 -68 35 -123 61 -124 57 -1 -12 -1 -596 0
-627 1 -21 8 -33 24 -41 12 -6 73 -37 136 -68 130 -66 365 -146 496 -170 50
-8 104 -18 120 -22 17 -3 138 -8 270 -10 223 -3 300 2 495 30 199 29 602 130
940 236 284 88 734 211 885 241 298 60 431 74 685 74 250 0 412 -23 615 -86
128 -39 313 -119 416 -180 42 -25 49 -26 67 -13 29 20 204 107 277 137 124 52
319 103 500 132 81 13 460 13 570 0 93 -11 286 -41 320 -49 6 -2 28 -6 50 -10
96 -18 561 -139 635 -166 14 -4 63 -20 110 -34 47 -13 155 -46 240 -71 85 -26
162 -48 170 -50 58 -16 99 -26 200 -53 124 -33 313 -77 370 -87 19 -3 46 -7
60 -10 14 -3 40 -7 58 -10 17 -3 44 -7 60 -9 29 -5 133 -16 197 -22 64 -5 376
-4 425 1 43 5 58 7 148 21 170 26 394 99 554 180 62 31 123 62 135 68 21 10
23 18 23 86 1 41 2 191 3 333 1 141 0 257 -3 257 -3 0 -14 -6 -25 -14 -35 -24
-198 -103 -280 -136 -111 -44 -260 -87 -365 -105 -19 -3 -42 -8 -50 -10 -8 -2
-40 -7 -70 -10 -30 -3 -76 -8 -102 -11 -102 -12 -393 -5 -503 11 -16 3 -46 7
-65 9 -44 6 -157 24 -190 31 -14 3 -41 8 -60 11 -19 2 -53 9 -75 15 -22 6 -47
12 -55 14 -100 20 -320 80 -650 178 -647 193 -779 227 -1105 281 -153 26 -232
31 -465 30 -201 0 -240 -3 -370 -28 -189 -35 -381 -100 -555 -187 l-140 -70
-126 64 c-159 80 -347 150 -480 176 -95 20 -111 22 -209 36 -77 11 -462 19
-472 10z"/>
</g>
</svg>
